<?xml version="1.0" encoding="utf-8"?>
<svg fill="#7f11e0" version="1.1" xmlns="http://www.w3.org/2000/svg" xmlns:xlink="http://www.w3.org/1999/xlink" x="0px" y="0px" viewBox="0 0 1000 1000" enable-background="new 0 0 1000 1000" xml:space="preserve">

<g><g id="_x35_151e0c8492e5103c096af88a51e7e7e"><path d="M427.5,502.9c0,124.1,8.9,228.4-52.4,290.1c-34.4,34.7-88.8,55.2-155.7,55.2c-109.7,0-170.6-53.4-209.5-127.4c37.4-23.9,75.7-47,114.6-69.3c15.9,44.5,69.6,94.5,130.2,63.7c38.4-19.5,34-78.7,34-142.9c0-133.4,0-287.2,0-407.6c-0.1-2-0.2-4,1.4-4.2c45.8,0,91.5,0,137.3,0C427.5,267.6,427.5,388.9,427.5,502.9z M775.6,422.3c-35-15-78.5-32.7-89.2-65.1c-12-36.3,8.4-66.2,31.1-76.4c49.9-22.4,109.4,14.5,121.7,52.4c37.6-22.4,75-44.8,109-70.8c-39.9-66.3-98.5-113.8-205.2-110.4c-58.8,1.9-102.9,20.4-135.9,48.1c-32.2,27-57,64.9-60.9,118.9c-11.6,161.5,109.3,202.7,212.3,247.7c32.5,14.2,68.6,28.5,83.5,56.6c30.8,58.1-23.8,96.4-70.8,100.5c-75.4,6.6-126.3-37.6-155.7-83.5c-36.7,22.7-76.6,42.3-111.8,66.5c49,86.1,129.3,141.9,254.7,141.5c128-0.4,222.9-62.1,230.7-178.3C999.9,511.9,881.6,467.6,775.6,422.3z"/></g></g>
</svg>